<svg width="137" height="144" viewBox="0 0 137 144" fill="none" xmlns="http://www.w3.org/2000/svg">
<g clip-path="url(#clip0_139_73)">
<g filter="url(#filter0_f_139_73)">
<path fill-rule="evenodd" clip-rule="evenodd" d="M68.4736 2.42622L68.3686 1.13892L68.2635 2.42622C61.0226 2.45822 53.795 5.80652 49.338 12.471C21.9596 20.6518 2.00248 46.0294 2.00248 76.0683C2.00248 81.3391 2.61698 86.466 3.77818 91.383C0.233082 98.576 0.946883 106.51 4.54008 112.798L3.47778 113.533L4.64518 112.98C8.29748 119.242 14.8216 123.831 22.8341 124.35C34.7182 135.562 50.7408 142.434 68.3686 142.434C85.9964 142.434 102.019 135.562 113.903 124.35C121.915 123.831 128.44 119.242 132.092 112.98L133.259 113.533L132.197 112.798C135.79 106.51 136.504 98.576 132.959 91.383C134.12 86.466 134.735 81.3391 134.735 76.0683C134.735 46.0294 114.777 20.6518 87.3991 12.471C82.9422 5.80652 75.7146 2.45822 68.4736 2.42622Z" fill="url(#paint0_radial_139_73)"/>
<mask id="mask0_139_73" style="mask-type:luminance" maskUnits="userSpaceOnUse" x="1" y="1" width="135" height="142">
<path fill-rule="evenodd" clip-rule="evenodd" d="M68.4736 2.42622L68.3686 1.13892L68.2635 2.42622C61.0226 2.45822 53.795 5.80652 49.338 12.471C21.9596 20.6518 2.00248 46.0294 2.00248 76.0683C2.00248 81.3391 2.61698 86.466 3.77818 91.383C0.233082 98.576 0.946883 106.51 4.54008 112.798L3.47778 113.533L4.64518 112.98C8.29748 119.242 14.8216 123.831 22.8341 124.35C34.7182 135.562 50.7408 142.434 68.3686 142.434C85.9964 142.434 102.019 135.562 113.903 124.35C121.915 123.831 128.44 119.242 132.092 112.98L133.259 113.533L132.197 112.798C135.79 106.51 136.504 98.576 132.959 91.383C134.12 86.466 134.735 81.3391 134.735 76.0683C134.735 46.0294 114.777 20.6518 87.3991 12.471C82.9422 5.80652 75.7146 2.45822 68.4736 2.42622Z" fill="url(#paint1_radial_139_73)"/>
</mask>
<g mask="url(#mask0_139_73)">
<path d="M68.3686 1.13897L71.3586 0.89487H65.3785L68.3686 1.13897ZM68.4736 2.42627L65.4836 2.67027L65.7075 5.41397L68.4603 5.42617L68.4736 2.42627ZM68.2635 2.42627L68.2768 5.42617L71.0296 5.41397L71.2536 2.67027L68.2635 2.42627ZM49.338 12.4711L50.1969 15.3456L51.2315 15.0364L51.8317 14.1389L49.338 12.4711ZM3.77824 91.3831L6.46914 92.7091L6.94563 91.7421L6.69784 90.6931L3.77824 91.3831ZM4.54014 112.798L6.24654 115.266L8.51073 113.7L7.14483 111.31L4.54014 112.798ZM3.47784 113.533L1.77144 111.066L4.76154 116.244L3.47784 113.533ZM4.64524 112.98L7.23664 111.469L5.84964 109.091L3.36154 110.269L4.64524 112.98ZM22.8341 124.35L24.8928 122.167L24.1067 121.426L23.0281 121.356L22.8341 124.35ZM113.903 124.35L113.709 121.356L112.63 121.426L111.844 122.167L113.903 124.35ZM132.092 112.98L133.376 110.269L130.887 109.091L129.5 111.469L132.092 112.98ZM133.259 113.533L131.976 116.244L134.966 111.066L133.259 113.533ZM132.197 112.798L129.592 111.31L128.226 113.7L130.491 115.266L132.197 112.798ZM132.959 91.3831L130.039 90.6931L129.791 91.7421L130.268 92.7091L132.959 91.3831ZM87.3991 12.4711L84.9054 14.1389L85.5057 15.0364L86.5402 15.3456L87.3991 12.4711ZM65.3785 1.38297L65.4836 2.67027L71.4637 2.18217L71.3586 0.89487L65.3785 1.38297ZM71.2536 2.67027L71.3586 1.38297L65.3785 0.89487L65.2734 2.18217L71.2536 2.67027ZM68.2502 -0.57373C60.1029 -0.53763 51.9038 3.23787 46.8443 10.8034L51.8317 14.1389C55.6861 8.37537 61.9423 5.45427 68.2768 5.42617L68.2502 -0.57373ZM48.4791 9.59667C19.8653 18.1466 -0.997464 44.6672 -0.997464 76.0684H5.00254C5.00254 47.3918 24.0539 23.1572 50.1969 15.3456L48.4791 9.59667ZM-0.997464 76.0684C-0.997464 81.5731 -0.355664 86.9321 0.858536 92.0721L6.69784 90.6931C5.58964 86.0011 5.00254 81.1053 5.00254 76.0684H-0.997464ZM1.08724 90.0561C-2.93705 98.2221 -2.10758 107.212 1.93544 114.287L7.14483 111.31C4.00133 105.809 3.40334 98.9291 6.46914 92.7091L1.08724 90.0561ZM5.18424 116L6.24654 115.266L2.83374 110.331L1.77144 111.066L5.18424 116ZM3.36154 110.269L2.19414 110.821L4.76154 116.244L5.92894 115.692L3.36154 110.269ZM2.05384 114.492C6.16334 121.538 13.5446 126.754 22.6402 127.343L23.0281 121.356C16.0986 120.907 10.4317 116.947 7.23664 111.469L2.05384 114.492ZM20.7754 126.532C33.194 138.248 49.9453 145.434 68.3686 145.434V139.434C51.5362 139.434 36.2423 132.875 24.8928 122.167L20.7754 126.532ZM68.3686 145.434C86.7918 145.434 103.543 138.248 115.962 126.532L111.844 122.167C100.495 132.875 85.2009 139.434 68.3686 139.434V145.434ZM114.097 127.343C123.192 126.754 130.574 121.537 134.683 114.492L129.5 111.469C126.305 116.947 120.638 120.907 113.709 121.356L114.097 127.343ZM134.543 110.821L133.376 110.269L130.808 115.692L131.976 116.244L134.543 110.821ZM130.491 115.266L131.553 116L134.966 111.066L133.903 110.331L130.491 115.266ZM134.802 114.287C138.845 107.212 139.674 98.2221 135.65 90.0561L130.268 92.7091C133.334 98.9291 132.736 105.809 129.592 111.31L134.802 114.287ZM135.879 92.0721C137.093 86.9321 137.735 81.5731 137.735 76.0684H131.735C131.735 81.1053 131.147 86.0011 130.039 90.6931L135.879 92.0721ZM137.735 76.0684C137.735 44.6672 116.872 18.1466 88.2581 9.59667L86.5402 15.3456C112.683 23.1572 131.735 47.3918 131.735 76.0684H137.735ZM89.8931 10.8034C84.8333 3.23787 76.6342 -0.53763 68.4869 -0.57373L68.4603 5.42617C74.7949 5.45427 81.051 8.37537 84.9054 14.1389L89.8931 10.8034Z" fill="url(#paint2_radial_139_73)"/>
</g>
</g>
<g filter="url(#filter1_f_139_73)">
<path d="M67.5 118.5C91.2482 118.5 110.5 99.2482 110.5 75.5C110.5 51.7518 91.2482 32.5 67.5 32.5C43.7518 32.5 24.5 51.7518 24.5 75.5C24.5 99.2482 43.7518 118.5 67.5 118.5Z" stroke="#21B4D6" stroke-width="11"/>
</g>
<g filter="url(#filter2_f_139_73)">
<path d="M68 124C94.5097 124 116 102.51 116 76C116 49.4903 94.5097 28 68 28C41.4903 28 20 49.4903 20 76C20 102.51 41.4903 124 68 124Z" stroke="white" stroke-width="2"/>
</g>
</g>
<defs>
<filter id="filter0_f_139_73" x="0.453857" y="0.138916" width="135.829" height="143.295" filterUnits="userSpaceOnUse" color-interpolation-filters="sRGB">
<feFlood flood-opacity="0" result="BackgroundImageFix"/>
<feBlend mode="normal" in="SourceGraphic" in2="BackgroundImageFix" result="shape"/>
<feGaussianBlur stdDeviation="0.5" result="effect1_foregroundBlur_139_73"/>
</filter>
<filter id="filter1_f_139_73" x="4" y="12" width="127" height="127" filterUnits="userSpaceOnUse" color-interpolation-filters="sRGB">
<feFlood flood-opacity="0" result="BackgroundImageFix"/>
<feBlend mode="normal" in="SourceGraphic" in2="BackgroundImageFix" result="shape"/>
<feGaussianBlur stdDeviation="7.5" result="effect1_foregroundBlur_139_73"/>
</filter>
<filter id="filter2_f_139_73" x="15" y="23" width="106" height="106" filterUnits="userSpaceOnUse" color-interpolation-filters="sRGB">
<feFlood flood-opacity="0" result="BackgroundImageFix"/>
<feBlend mode="normal" in="SourceGraphic" in2="BackgroundImageFix" result="shape"/>
<feGaussianBlur stdDeviation="2" result="effect1_foregroundBlur_139_73"/>
</filter>
<radialGradient id="paint0_radial_139_73" cx="0" cy="0" r="1" gradientUnits="userSpaceOnUse" gradientTransform="translate(68.3687 75.5907) rotate(90) scale(75.4686 75.7479)">
<stop stop-color="white"/>
<stop offset="1" stop-color="white" stop-opacity="0"/>
</radialGradient>
<radialGradient id="paint1_radial_139_73" cx="0" cy="0" r="1" gradientUnits="userSpaceOnUse" gradientTransform="translate(68.3687 75.5907) rotate(90) scale(75.4686 75.7479)">
<stop stop-color="white"/>
<stop offset="1" stop-color="white" stop-opacity="0"/>
</radialGradient>
<radialGradient id="paint2_radial_139_73" cx="0" cy="0" r="1" gradientUnits="userSpaceOnUse" gradientTransform="translate(68.3687 75.5908) rotate(90) scale(75.4686 75.7479)">
<stop stop-color="white"/>
<stop offset="1" stop-color="white" stop-opacity="0"/>
</radialGradient>
<clipPath id="clip0_139_73">
<rect width="137" height="144" fill="white"/>
</clipPath>
</defs>
</svg>
