<?xml version="1.0" encoding="UTF-8"?>
<svg id="Calque_2" data-name="Calque 2" xmlns="http://www.w3.org/2000/svg" viewBox="0 0 61.73 61.73">
  <defs>
    <style>
      .cls-1 {
        fill: #fff;
      }

      .cls-2 {
        fill: #21b4d6;
      }
    </style>
  </defs>
  <g id="Calque_1-2" data-name="Calque 1">
    <g>
      <circle class="cls-1" cx="30.87" cy="30.87" r="28.87"/>
      <path class="cls-2" d="m30.87,61.73C13.85,61.73,0,47.89,0,30.87S13.85,0,30.87,0s30.87,13.85,30.87,30.87-13.85,30.87-30.87,30.87Zm0-57.73c-14.81,0-26.87,12.05-26.87,26.87s12.05,26.87,26.87,26.87,26.87-12.05,26.87-26.87S45.68,4,30.87,4Z"/>
    </g>
    <g>
      <path class="cls-2" d="m25.44,12.68c1.38-1.63,4.33-2.92,8.2-2.16,2.41.47,2.22,2.52,2.22,2.52l-1.19,24.86s-.08,2.02-2.91,1.44-4.56-3.24-4.93-5.65-2.76-19.39-1.39-21.01Z"/>
      <path class="cls-2" d="m35.82,47.65c0,2.67-.86,3.79-3.53,3.79s-5.56-2.7-5.56-5.38,1.32-4.21,3.99-4.21,5.1,3.13,5.1,5.8Z"/>
    </g>
  </g>
</svg>