<?xml version="1.0" encoding="UTF-8"?>
<svg id="Calque_2" data-name="Calque 2" xmlns="http://www.w3.org/2000/svg" viewBox="0 0 61.73 61.73">
  <defs>
    <style>
      .cls-1 {
        fill: #fff;
      }

      .cls-2 {
        fill: #21b4d6;
      }
    </style>
  </defs>
  <g id="Calque_1-2" data-name="Calque 1">
    <g>
      <circle class="cls-1" cx="30.87" cy="30.87" r="28.87"/>
      <path class="cls-2" d="m30.87,61.73C13.85,61.73,0,47.89,0,30.87S13.85,0,30.87,0s30.87,13.85,30.87,30.87-13.85,30.87-30.87,30.87Zm0-57.73c-14.81,0-26.87,12.05-26.87,26.87s12.05,26.87,26.87,26.87,26.87-12.05,26.87-26.87S45.68,4,30.87,4Z"/>
    </g>
    <path class="cls-2" d="m30.87,16.14c-9.69,0-17.56,6.59-17.56,14.73,0,4.61,2.53,8.66,6.49,11.3l9.22,6.69c.51.37,1.22,0,1.22-.62v-2.12c0-.42.33-.76.75-.77,10.61-.28,17.43-6.54,17.43-14.49s-7.86-14.72-17.56-14.72Zm-8.8,17.72c-1.66,0-3.01-1.33-3.04-2.98s1.27-3.01,2.88-3.09c1.74-.09,3.19,1.31,3.19,3.03s-1.36,3.04-3.04,3.04Zm9.2-.02c-1.99.24-3.65-1.45-3.38-3.44.18-1.35,1.28-2.44,2.64-2.6,1.99-.24,3.65,1.45,3.38,3.44-.18,1.35-1.28,2.44-2.64,2.6Zm8.45.02c-1.66,0-3.01-1.33-3.04-2.98s1.27-3.01,2.88-3.09c1.74-.09,3.19,1.31,3.19,3.03s-1.36,3.04-3.04,3.04Z"/>
  </g>
</svg>