<svg viewBox="0 0 460 307" fill="none" xmlns="http://www.w3.org/2000/svg">
<path d="M229.47 306.29C269.306 306.29 301.6 273.996 301.6 234.16C301.6 194.324 269.306 162.03 229.47 162.03C189.634 162.03 157.34 194.324 157.34 234.16C157.34 273.996 189.634 306.29 229.47 306.29Z" fill="#21B4D6"/>
<path d="M459.2 190.89C459.2 209.12 447.82 224.66 431.76 230.79C429.16 231.78 426.44 232.52 423.62 232.99C421.86 233.25 420.1 233.47 418.28 233.52C417.7 233.57 417.11 233.57 416.52 233.57C414.92 233.57 413.35 233.48 411.79 233.31C393.28 231.27 378.3 217.36 374.68 199.34C374.13 196.61 373.84 193.78 373.84 190.89C373.84 175.76 381.75 162.43 393.63 154.89C395.44 153.73 397.35 152.71 399.34 151.84C400.94 151.09 402.65 150.45 404.41 149.97C407.07 149.16 409.84 148.63 412.69 148.38C413.95 148.27 415.23 148.21 416.52 148.21C440.1 148.21 459.2 167.31 459.2 190.89Z" fill="#21B4D6"/>
<path d="M229.47 85.36C253.041 85.36 272.15 66.2515 272.15 42.68C272.15 19.1085 253.041 0 229.47 0C205.898 0 186.79 19.1085 186.79 42.68C186.79 66.2515 205.898 85.36 229.47 85.36Z" fill="#21B4D6"/>
<path d="M85.37 190.89C85.37 194.25 84.98 197.51 84.25 200.64C80.17 218.11 65.36 231.45 47.15 233.34C45.68 233.49 44.19 233.57 42.69 233.57C41.99 233.57 41.3 233.57 40.66 233.52C38.84 233.47 37.08 233.25 35.32 232.93C32.51 232.44 29.79 231.68 27.19 230.68C11.28 224.49 0 209.01 0 190.89C0 167.31 19.1 148.21 42.69 148.21C43.89 148.21 45.08 148.26 46.26 148.37C49.11 148.6 51.9 149.13 54.58 149.92C56.29 150.4 58 150.99 59.65 151.73C61.64 152.59 63.56 153.6 65.38 154.75C77.37 162.27 85.37 175.66 85.37 190.89Z" fill="#21B4D6"/>
<path d="M412.69 148.38C386.13 91.89 334.2 49.6 271.67 36.28C258.05 33.38 243.94 31.85 229.47 31.85C215 31.85 200.89 33.38 187.27 36.28C124.74 49.59 72.81 91.89 46.26 148.37C34.47 173.44 27.68 201.31 27.19 230.68C29.79 231.68 32.51 232.44 35.32 232.93C37.08 233.25 38.84 233.47 40.66 233.52C41.3 233.57 41.99 233.57 42.69 233.57C44.19 233.57 45.68 233.49 47.15 233.34C47.21 219.53 48.82 206.08 51.81 193.15C54.9 179.73 59.49 166.86 65.38 154.75C89.25 105.62 134.54 68.76 189.03 56.37C202.04 53.41 215.58 51.85 229.47 51.85C243.36 51.85 256.9 53.41 269.91 56.37C324.45 68.77 369.78 105.69 393.63 154.89C399.27 166.51 403.7 178.81 406.78 191.64C409.99 205.02 411.72 218.97 411.79 233.31C413.35 233.48 414.92 233.57 416.52 233.57C417.11 233.57 417.7 233.57 418.28 233.52C420.1 233.47 421.86 233.25 423.62 232.99C426.44 232.52 429.16 231.78 431.76 230.79C431.28 201.38 424.49 173.48 412.69 148.38Z" fill="#21B4D6"/>
<path d="M229.47 234.16V42.6801" stroke="#21B4D6" stroke-width="20" stroke-miterlimit="10"/>
<path d="M416.52 189.29L229.47 234.16" stroke="#21B4D6" stroke-width="20" stroke-miterlimit="10"/>
<path d="M42.04 190.89L229.47 234.16" stroke="#21B4D6" stroke-width="20" stroke-miterlimit="10"/>
</svg>
