<?xml version="1.0" encoding="UTF-8"?>
<svg id="Calque_2" data-name="Calque 2" xmlns="http://www.w3.org/2000/svg" viewBox="0 0 459.2 306.29">
  <defs>
    <style>
      .cls-1 {
        fill: #fff;
      }

      .cls-2 {
        fill: none;
        stroke: #fff;
        stroke-miterlimit: 10;
        stroke-width: 20px;
      }
    </style>
  </defs>
  <g id="Calque_1-2">
    <circle class="cls-1" cx="229.47" cy="234.16" r="72.13"/>
    <path class="cls-1" d="m459.2,190.89c0,18.23-11.38,33.77-27.44,39.9-2.6.99-5.32,1.73-8.14,2.2-1.76.26-3.52.48-5.34.53-.58.05-1.17.05-1.76.05-1.6,0-3.17-.09-4.73-.26-18.51-2.04-33.49-15.95-37.11-33.97-.55-2.73-.84-5.56-.84-8.45,0-15.13,7.91-28.46,19.79-36,1.81-1.16,3.72-2.18,5.71-3.05,1.6-.75,3.31-1.39,5.07-1.87,2.66-.81,5.43-1.34,8.28-1.59,1.26-.11,2.54-.17,3.83-.17,23.58,0,42.68,19.1,42.68,42.68Z"/>
    <circle class="cls-1" cx="229.47" cy="42.68" r="42.68"/>
    <path class="cls-1" d="m85.37,190.89c0,3.36-.39,6.62-1.12,9.75-4.08,17.47-18.89,30.81-37.1,32.7-1.47.15-2.96.23-4.46.23-.7,0-1.39,0-2.03-.05-1.82-.05-3.58-.27-5.34-.59-2.81-.49-5.53-1.25-8.13-2.25-15.91-6.19-27.19-21.67-27.19-39.79,0-23.58,19.1-42.68,42.69-42.68,1.2,0,2.39.05,3.57.16,2.85.23,5.64.76,8.32,1.55,1.71.48,3.42,1.07,5.07,1.81,1.99.86,3.91,1.87,5.73,3.02,11.99,7.52,19.99,20.91,19.99,36.14Z"/>
    <path class="cls-1" d="m412.69,148.38c-26.56-56.49-78.49-98.78-141.02-112.1-13.62-2.9-27.73-4.43-42.2-4.43s-28.58,1.53-42.2,4.43c-62.53,13.31-114.46,55.61-141.01,112.09-11.79,25.07-18.58,52.94-19.07,82.31,2.6,1,5.32,1.76,8.13,2.25,1.76.32,3.52.54,5.34.59.64.05,1.33.05,2.03.05,1.5,0,2.99-.08,4.46-.23.06-13.81,1.67-27.26,4.66-40.19,3.09-13.42,7.68-26.29,13.57-38.4,23.87-49.13,69.16-85.99,123.65-98.38,13.01-2.96,26.55-4.52,40.44-4.52s27.43,1.56,40.44,4.52c54.54,12.4,99.87,49.32,123.72,98.52,5.64,11.62,10.07,23.92,13.15,36.75,3.21,13.38,4.94,27.33,5.01,41.67,1.56.17,3.13.26,4.73.26.59,0,1.18,0,1.76-.05,1.82-.05,3.58-.27,5.34-.53,2.82-.47,5.54-1.21,8.14-2.2-.48-29.41-7.27-57.31-19.07-82.41Z"/>
    <line class="cls-2" x1="229.47" y1="234.16" x2="229.47" y2="42.68"/>
    <line class="cls-2" x1="416.52" y1="189.29" x2="229.47" y2="234.16"/>
    <line class="cls-2" x1="42.04" y1="190.89" x2="229.47" y2="234.16"/>
  </g>
</svg>