<?xml version="1.0" encoding="UTF-8"?>
<svg id="Calque_2" data-name="Calque 2" xmlns="http://www.w3.org/2000/svg" viewBox="0 0 19.54 21.3">
  <defs>
    <style>
      .cls-1 {
        fill: #21b4d6;
      }
    </style>
  </defs>
  <g id="Calque_1-2" data-name="Calque 1">
    <path class="cls-1" d="m0,20.42c.08-.4.18-.88.28-1.35.45-2.14.91-4.28,1.36-6.42.11-.5.31-.72.78-.77,1.1-.13,2.2-.25,3.31-.37,1.55-.17,3.1-.35,4.65-.53.36-.04.73-.08,1.09-.12.14-.01.26-.05.27-.24,0-.19-.1-.26-.26-.28-1.2-.13-2.4-.26-3.6-.38-1.52-.16-3.04-.32-4.56-.48-.33-.03-.66-.06-.98-.11-.4-.06-.59-.26-.68-.69-.22-1.05-.45-2.09-.67-3.14C.67,4.06.36,2.58.04,1.1-.04.73,0,.41.28.17c.28-.23.57-.22.88-.05,2.25,1.23,4.5,2.46,6.76,3.69,3.66,2,7.33,4,10.99,6,.06.03.12.07.18.1.28.16.44.41.44.76,0,.35-.16.6-.44.76-.57.31-1.15.62-1.72.93-5.38,2.92-10.77,5.85-16.15,8.78-.25.13-.49.23-.77.1C.18,21.12,0,20.83,0,20.42Z"/>
  </g>
</svg>