<?xml version="1.0" encoding="UTF-8"?>
<svg id="Calque_2" data-name="Calque 2" xmlns="http://www.w3.org/2000/svg" viewBox="0 0 28.66 26.83">
  <defs>
    <style>
      .cls-1 {
        fill: #fff;
      }

      .cls-2 {
        fill: #21b4d6;
      }
    </style>
  </defs>
  <g id="Calque_1-2" data-name="Calque 1">
    <g>
      <path class="cls-2" d="m14.33,0C6.42,0,0,5.38,0,12.02c0,3.77,2.06,7.07,5.3,9.22l7.53,5.46c.42.3,1,0,1-.51v-1.73c0-.34.27-.62.61-.63,8.66-.23,14.23-5.34,14.23-11.83S22.24,0,14.33,0Zm-7.19,14.47c-1.35,0-2.45-1.08-2.48-2.43-.03-1.32,1.03-2.46,2.35-2.53,1.43-.07,2.61,1.07,2.61,2.48s-1.11,2.48-2.48,2.48Zm9.67-2.14c-.15,1.11-1.05,1.99-2.16,2.12-1.62.19-2.98-1.19-2.76-2.8.15-1.11,1.05-1.99,2.15-2.12,1.63-.19,2.98,1.19,2.76,2.8Zm4.74,2.14c-1.35,0-2.46-1.08-2.48-2.43-.03-1.32,1.03-2.46,2.35-2.53,1.43-.07,2.61,1.07,2.61,2.48s-1.11,2.48-2.48,2.48Z"/>
      <path class="cls-1" d="m24.03,11.99c0,1.37-1.11,2.48-2.48,2.48s-2.46-1.08-2.48-2.43c-.03-1.32,1.03-2.46,2.35-2.53,1.43-.07,2.61,1.07,2.61,2.48Z"/>
      <path class="cls-1" d="m16.81,12.33c-.15,1.11-1.05,1.99-2.16,2.12-1.62.19-2.98-1.19-2.76-2.8.15-1.11,1.05-1.99,2.15-2.12,1.63-.19,2.98,1.19,2.76,2.8Z"/>
      <path class="cls-1" d="m9.62,11.99c0,1.37-1.11,2.48-2.48,2.48s-2.45-1.08-2.48-2.43c-.03-1.32,1.03-2.46,2.35-2.53,1.43-.07,2.61,1.07,2.61,2.48Z"/>
    </g>
  </g>
</svg>