<svg width="392" height="392" viewBox="0 0 392 392" fill="none" xmlns="http://www.w3.org/2000/svg">
<g clip-path="url(#clip0_107_45)">
<path d="M165.238 383.728C174.47 389.179 184.999 392.036 195.72 391.999C206.419 392.018 216.933 389.212 226.202 383.864L341.899 316.067C360.358 305.147 371.728 285.322 371.84 263.864V128.27C371.773 106.762 360.4 86.8773 341.899 75.9299L226.202 8.13328C207.326 -2.71109 184.114 -2.71109 165.238 8.13328L49.541 75.9299C31.0404 86.8773 19.6666 106.762 19.6 128.27V263.864C19.6665 285.371 31.0396 305.256 49.541 316.203L165.238 383.728Z" fill="#21B4D6" fill-opacity="0.29"/>
<path d="M288.187 151.096L176.165 263.105C173.213 266.037 169.223 267.68 165.064 267.68C160.905 267.68 156.915 266.037 153.963 263.105L103.742 212.651C100.784 209.703 99.12 205.7 99.12 201.524C99.12 197.352 100.784 193.349 103.742 190.401C106.701 187.469 110.698 185.823 114.868 185.823C119.034 185.823 123.034 187.469 125.993 190.401L154.156 218.561V218.564C157.095 221.516 161.091 223.179 165.257 223.179C169.423 223.179 173.42 221.516 176.358 218.564L266.133 128.895C269.085 125.963 273.075 124.32 277.234 124.32C281.393 124.32 285.383 125.963 288.335 128.895C291.27 131.853 292.907 135.859 292.879 140.025C292.849 144.19 291.165 148.176 288.189 151.094L288.187 151.096Z" fill="#21B4D6" fill-opacity="0.6"/>
</g>
<defs>
<clipPath id="clip0_107_45">
<rect width="392" height="392" fill="white"/>
</clipPath>
</defs>
</svg>
