<svg viewBox="0 0 700 700" xmlns="http://www.w3.org/2000/svg">
<path d="M295.068 685.228C311.554 694.962 330.356 700.064 349.5 699.999C368.605 700.032 387.381 695.022 403.932 685.471L610.534 564.406C643.496 544.905 663.8 509.504 664 471.185V229.054C663.881 190.647 643.572 155.138 610.534 135.589L403.932 14.5237C370.225 -4.84125 328.775 -4.84125 295.068 14.5237L88.4661 135.589C55.4293 155.138 35.1189 190.647 35 229.054V471.185C35.1188 509.591 55.4279 545.1 88.4661 564.649L295.068 685.228Z" fill="black" fill-opacity="0.29"/>
<path d="M514.62 269.815L314.58 469.831C309.309 475.066 302.184 478 294.757 478C287.33 478 280.205 475.066 274.934 469.831L185.254 379.734C179.971 374.469 177 367.321 177 359.865C177 352.415 179.971 345.266 185.254 340.001C190.538 334.766 197.675 331.826 205.121 331.826C212.56 331.826 219.703 334.766 224.987 340.001L275.279 390.287V390.293C280.526 395.564 287.663 398.534 295.102 398.534C302.541 398.534 309.678 395.564 314.925 390.293L475.238 230.169C480.509 224.934 487.634 222 495.061 222C502.488 222 509.613 224.934 514.884 230.169C520.125 235.452 523.048 242.606 522.999 250.044C522.945 257.482 519.938 264.6 514.624 269.81L514.62 269.815Z" fill="black" fill-opacity="0.35"/>
</svg>
